<svg width="97" height="83" viewBox="0 0 97 83" fill="none" xmlns="http://www.w3.org/2000/svg">
<path fill-rule="evenodd" clip-rule="evenodd" d="M24.6484 7.94127C23.3358 12.1919 19.4063 15.0909 14.9577 15.0909H11.1923C8.22262 15.0909 5.37636 16.2833 3.27945 18.4072C1.17922 20.5277 0 23.4062 0 26.4091V71.6818C0 74.6849 1.17918 77.5632 3.27945 79.6837C5.37634 81.8075 8.22283 83 11.1923 83H85.8077C88.7774 83 91.6236 81.8076 93.7206 79.6837C95.8208 77.5632 97 74.6847 97 71.6818V26.4091C97 23.406 95.8208 20.5277 93.7206 18.4072C91.6237 16.2834 88.7772 15.0909 85.8077 15.0909H82.0425C77.5937 15.0909 73.6641 12.1919 72.3511 7.94127C70.8921 3.21781 66.5642 0 61.6694 0H35.3302C30.4352 0 26.1073 3.21781 24.6484 7.94127ZM25.1827 22.6364C26.8132 22.6364 28.2573 21.5652 28.7418 19.9879L31.7714 10.1939C32.2561 8.61661 33.7001 7.54545 35.3306 7.54545H61.6698C63.3004 7.54545 64.7444 8.61665 65.229 10.1939L68.2586 19.9879C68.7432 21.5652 70.1873 22.6364 71.8177 22.6364H85.8081C86.7966 22.6364 87.7485 23.0322 88.4454 23.7421C89.1475 24.4469 89.5389 25.4095 89.5389 26.4091V71.6818C89.5389 72.6814 89.1475 73.644 88.4454 74.3488C87.7484 75.0587 86.7966 75.4545 85.8081 75.4545H11.1927C10.2043 75.4545 9.25239 75.0587 8.5554 74.3488C7.85338 73.6439 7.46199 72.6814 7.46199 71.6818V26.4091C7.46199 25.4095 7.85338 24.4469 8.5554 23.7421C9.25241 23.0322 10.2043 22.6364 11.1927 22.6364H25.1827ZM48.5011 22.6364C36.1488 22.6364 26.1165 32.7816 26.1165 45.2727C26.1165 57.7639 36.1488 67.9091 48.5011 67.9091C60.8533 67.9091 70.8857 57.7639 70.8857 45.2727C70.8857 32.7816 60.8533 22.6364 48.5011 22.6364ZM48.5011 30.1818C56.7388 30.1818 63.4241 36.9423 63.4241 45.2727C63.4241 53.6031 56.7388 60.3636 48.5011 60.3636C40.2633 60.3636 33.578 53.6031 33.578 45.2727C33.578 36.9423 40.2633 30.1818 48.5011 30.1818Z" fill="#527FF5"/>
</svg>
