<svg width="106" height="74" viewBox="0 0 106 74" fill="none" xmlns="http://www.w3.org/2000/svg">
<path d="M94.916 0.000563111H66.3417C64.3794 0.00256515 62.4522 0.523141 60.7588 1.5082C59.0643 2.49328 57.6638 3.9078 56.7003 5.60659H8.84111C6.49617 5.60659 4.24799 6.5326 2.58962 8.18142C0.931253 9.83023 0 12.0656 0 14.3972V65.2094C0 67.541 0.93133 69.7763 2.58962 71.4252C4.24791 73.0741 6.4961 74 8.84111 74H91.5327H91.5317C93.8746 73.997 96.121 73.07 97.7763 71.4213C99.4315 69.7735 100.362 67.5392 100.362 65.2097V49.019C102.07 48.061 103.493 46.6685 104.484 44.9837C105.474 43.2999 105.998 41.3838 106 39.4327V11.0217C105.997 8.09966 104.828 5.29752 102.75 3.23141C100.672 1.1653 97.8538 0.00281906 94.9149 0L94.916 0.000563111ZM66.3417 7.84908H94.9057H94.9047C96.6697 7.84908 98.1013 9.26763 98.1075 11.0226V39.4335C98.1014 41.1834 96.6757 42.6009 94.9157 42.607H66.3415C64.5815 42.601 63.1559 41.1835 63.1497 39.4335V11.0226C63.1558 9.27267 64.5815 7.85523 66.3415 7.84908H66.3417ZM91.5227 66.1523H8.84137C8.31783 66.1523 7.89393 65.7309 7.89393 65.2103V14.3981C7.89393 13.8775 8.3178 13.456 8.84137 13.456H55.2546V39.4349C55.2576 42.357 56.4265 45.1591 58.5045 47.2253C60.5826 49.2914 63.4008 50.4538 66.3397 50.4567H92.4678V65.2116C92.4678 65.4619 92.3682 65.7012 92.19 65.8773C92.0128 66.0545 91.7721 66.1536 91.5204 66.1536L91.5227 66.1523Z" fill="#527FF5"/>
</svg>
