<svg width="129" height="84" viewBox="0 0 129 84" fill="none" xmlns="http://www.w3.org/2000/svg">
<path fill-rule="evenodd" clip-rule="evenodd" d="M94.9562 59.6718L115.936 71.6923C118.528 73.1764 121.715 73.1651 124.298 71.6642C126.882 70.1605 128.471 67.391 128.471 64.3978V19.5999C128.471 16.6064 126.882 13.8371 124.298 12.3335C121.715 10.8326 118.528 10.8213 115.936 12.3054L94.9562 24.3259V13.9995C94.9562 10.287 93.4843 6.72544 90.8679 4.09867C88.2478 1.4755 84.6953 0 80.9922 0H13.9639C10.2608 0 6.70834 1.4756 4.08825 4.09867C1.47175 6.72544 0 10.287 0 13.9995V70.0005C0 73.713 1.47185 77.2746 4.08825 79.9013C6.70834 82.5245 10.2608 84 13.9639 84H80.9922C84.6953 84 88.2478 82.5244 90.8679 79.9013C93.4844 77.2746 94.9562 73.713 94.9562 70.0005V59.6718ZM89.3708 13.9979V69.9989C89.3708 72.2273 88.4881 74.364 86.9161 75.9369C85.3461 77.5138 83.215 78.3988 80.9922 78.3988H13.9639C11.7412 78.3988 9.60995 77.5138 8.04005 75.9369C6.46814 74.3638 5.58538 72.2273 5.58538 69.9989V13.9979C5.58538 11.7695 6.46811 9.63286 8.04005 8.05992C9.61009 6.48306 11.7412 5.59803 13.9639 5.59803H80.9922C83.215 5.59803 85.3462 6.48302 86.9161 8.05992C88.488 9.63303 89.3708 11.7696 89.3708 13.9979ZM94.9562 30.7725L118.707 17.1676C119.57 16.6726 120.634 16.6754 121.495 17.176C122.355 17.6776 122.885 18.601 122.885 19.5985V64.3964C122.885 65.3939 122.355 66.3174 121.495 66.819C120.634 67.3196 119.57 67.3224 118.707 66.8274L94.9562 53.2224V30.7725Z" fill="#5492FF"/>
</svg>
